name ../VV_Laxity/vv_45.mot
datacolumns  10
datarows 58
range   14.00000000 14.57000000
cursor 1.0 1.0 0.0
keys m_key
wrap
enforce_loops no
enforce_constraints no
calc_derivatives -1.000000
event_color 0.000000 0.000000 0.000000
endheader
            time femur_r_force_vx femur_r_force_vy femur_r_force_vz femur_r_force_px femur_r_force_py femur_r_force_pz femur_r_torque_x femur_r_torque_y femur_r_torque_z 
     14.00000000       0.00000000       0.00000000       0.00000000      -0.05123681      -0.49427285       0.00000000      -0.15707385       0.15707385       0.00000000 
     14.01000000       0.00000000       0.00000000       0.00000000      -0.05123681      -0.49427285       0.00000000      -0.15191920       0.15191920       0.00000000 
     14.02000000       0.00000000       0.00000000       0.00000000      -0.05123681      -0.49427285       0.00000000      -0.14684869       0.14684869       0.00000000 
     14.03000000       0.00000000       0.00000000       0.00000000      -0.05123681      -0.49427285       0.00000000      -0.14186244       0.14186244       0.00000000 
     14.04000000       0.00000000       0.00000000       0.00000000      -0.05123681      -0.49427285       0.00000000      -0.13696059       0.13696059       0.00000000 
     14.05000000       0.00000000       0.00000000       0.00000000      -0.05123681      -0.49427285       0.00000000      -0.13214324       0.13214324       0.00000000 
     14.06000000       0.00000000       0.00000000       0.00000000      -0.05123681      -0.49427285       0.00000000      -0.12741053       0.12741053       0.00000000 
     14.07000000       0.00000000       0.00000000       0.00000000      -0.05123681      -0.49427285       0.00000000      -0.12276256       0.12276256       0.00000000 
     14.08000000       0.00000000       0.00000000       0.00000000      -0.05123681      -0.49427285       0.00000000      -0.11819946       0.11819946       0.00000000 
     14.09000000       0.00000000       0.00000000       0.00000000      -0.05123681      -0.49427285       0.00000000      -0.11372134       0.11372134       0.00000000 
     14.10000000       0.00000000       0.00000000       0.00000000      -0.05123681      -0.49427285       0.00000000      -0.10932830       0.10932830       0.00000000 
     14.11000000       0.00000000       0.00000000       0.00000000      -0.05123681      -0.49427285       0.00000000      -0.10502047       0.10502047       0.00000000 
     14.12000000       0.00000000       0.00000000       0.00000000      -0.05123681      -0.49427285       0.00000000      -0.10079794       0.10079794       0.00000000 
     14.13000000       0.00000000       0.00000000       0.00000000      -0.05123681      -0.49427285       0.00000000      -0.09666082       0.09666082       0.00000000 
     14.14000000       0.00000000       0.00000000       0.00000000      -0.05123681      -0.49427285       0.00000000      -0.09260921       0.09260921       0.00000000 
     14.15000000       0.00000000       0.00000000       0.00000000      -0.05123681      -0.49427285       0.00000000      -0.08864322       0.08864322       0.00000000 
     14.16000000       0.00000000       0.00000000       0.00000000      -0.05123681      -0.49427285       0.00000000      -0.08476294       0.08476294       0.00000000 
     14.17000000       0.00000000       0.00000000       0.00000000      -0.05123681      -0.49427285       0.00000000      -0.08096847       0.08096847       0.00000000 
     14.18000000       0.00000000       0.00000000       0.00000000      -0.05123681      -0.49427285       0.00000000      -0.07725990       0.07725990       0.00000000 
     14.19000000       0.00000000       0.00000000       0.00000000      -0.05123681      -0.49427285       0.00000000      -0.07363733       0.07363733       0.00000000 
     14.20000000       0.00000000       0.00000000       0.00000000      -0.05123681      -0.49427285       0.00000000      -0.07010084       0.07010084       0.00000000 
     14.21000000       0.00000000       0.00000000       0.00000000      -0.05123681      -0.49427285       0.00000000      -0.06665053       0.06665053       0.00000000 
     14.22000000       0.00000000       0.00000000       0.00000000      -0.05123681      -0.49427285       0.00000000      -0.06328648       0.06328648       0.00000000 
     14.23000000       0.00000000       0.00000000       0.00000000      -0.05123681      -0.49427285       0.00000000      -0.06000877       0.06000877       0.00000000 
     14.24000000       0.00000000       0.00000000       0.00000000      -0.05123681      -0.49427285       0.00000000      -0.05681748       0.05681748       0.00000000 
     14.25000000       0.00000000       0.00000000       0.00000000      -0.05123681      -0.49427285       0.00000000      -0.05371270       0.05371270       0.00000000 
     14.26000000       0.00000000       0.00000000       0.00000000      -0.05123681      -0.49427285       0.00000000      -0.05069451       0.05069451       0.00000000 
     14.27000000       0.00000000       0.00000000       0.00000000      -0.05123681      -0.49427285       0.00000000      -0.04776296       0.04776296       0.00000000 
     14.28000000       0.00000000       0.00000000       0.00000000      -0.05123681      -0.49427285       0.00000000      -0.04491815       0.04491815       0.00000000 
     14.29000000       0.00000000       0.00000000       0.00000000      -0.05123681      -0.49427285       0.00000000      -0.04216014       0.04216014       0.00000000 
     14.30000000       0.00000000       0.00000000       0.00000000      -0.05123681      -0.49427285       0.00000000      -0.03948899       0.03948899       0.00000000 
     14.31000000       0.00000000       0.00000000       0.00000000      -0.05123681      -0.49427285       0.00000000      -0.03690478       0.03690478       0.00000000 
     14.32000000       0.00000000       0.00000000       0.00000000      -0.05123681      -0.49427285       0.00000000      -0.03440757       0.03440757       0.00000000 
     14.33000000       0.00000000       0.00000000       0.00000000      -0.05123681      -0.49427285       0.00000000      -0.03199742       0.03199742       0.00000000 
     14.34000000       0.00000000       0.00000000       0.00000000      -0.05123681      -0.49427285       0.00000000      -0.02967440       0.02967440       0.00000000 
     14.35000000       0.00000000       0.00000000       0.00000000      -0.05123681      -0.49427285       0.00000000      -0.02743855       0.02743855       0.00000000 
     14.36000000       0.00000000       0.00000000       0.00000000      -0.05123681      -0.49427285       0.00000000      -0.02528993       0.02528993       0.00000000 
     14.37000000       0.00000000       0.00000000       0.00000000      -0.05123681      -0.49427285       0.00000000      -0.02322861       0.02322861       0.00000000 
     14.38000000       0.00000000       0.00000000       0.00000000      -0.05123681      -0.49427285       0.00000000      -0.02125462       0.02125462       0.00000000 
     14.39000000       0.00000000       0.00000000       0.00000000      -0.05123681      -0.49427285       0.00000000      -0.01936802       0.01936802       0.00000000 
     14.40000000       0.00000000       0.00000000       0.00000000      -0.05123681      -0.49427285       0.00000000      -0.01756886       0.01756886       0.00000000 
     14.41000000       0.00000000       0.00000000       0.00000000      -0.05123681      -0.49427285       0.00000000      -0.01585718       0.01585718       0.00000000 
     14.42000000       0.00000000       0.00000000       0.00000000      -0.05123681      -0.49427285       0.00000000      -0.01423302       0.01423302       0.00000000 
     14.43000000       0.00000000       0.00000000       0.00000000      -0.05123681      -0.49427285       0.00000000      -0.01269642       0.01269642       0.00000000 
     14.44000000       0.00000000       0.00000000       0.00000000      -0.05123681      -0.49427285       0.00000000      -0.01124743       0.01124743       0.00000000 
     14.45000000       0.00000000       0.00000000       0.00000000      -0.05123681      -0.49427285       0.00000000      -0.00988607       0.00988607       0.00000000 
     14.46000000       0.00000000       0.00000000       0.00000000      -0.05123681      -0.49427285       0.00000000      -0.00861238       0.00861238       0.00000000 
     14.47000000       0.00000000       0.00000000       0.00000000      -0.05123681      -0.49427285       0.00000000      -0.00742640       0.00742640       0.00000000 
     14.48000000       0.00000000       0.00000000       0.00000000      -0.05123681      -0.49427285       0.00000000      -0.00632815       0.00632815       0.00000000 
     14.49000000       0.00000000       0.00000000       0.00000000      -0.05123681      -0.49427285       0.00000000      -0.00531765       0.00531765       0.00000000 
     14.50000000       0.00000000       0.00000000       0.00000000      -0.05123681      -0.49427285       0.00000000      -0.00439495       0.00439495       0.00000000 
     14.51000000       0.00000000       0.00000000       0.00000000      -0.05123681      -0.49427285       0.00000000       0.00000000       0.00000000       0.00000000 
     14.52000000       0.00000000       0.00000000       0.00000000      -0.05123681      -0.49427285       0.00000000       0.00000000       0.00000000       0.00000000 
     14.53000000       0.00000000       0.00000000       0.00000000      -0.05123681      -0.49427285       0.00000000       0.00000000       0.00000000       0.00000000 
     14.54000000       0.00000000       0.00000000       0.00000000      -0.05123681      -0.49427285       0.00000000       0.00000000       0.00000000       0.00000000 
     14.55000000       0.00000000       0.00000000       0.00000000      -0.05123681      -0.49427285       0.00000000       0.00000000       0.00000000       0.00000000 
     14.56000000       0.00000000       0.00000000       0.00000000      -0.05123681      -0.49427285       0.00000000       0.00000000       0.00000000       0.00000000 
     14.57000000       0.00000000       0.00000000       0.00000000      -0.05123681      -0.49427285       0.00000000       0.00000000       0.00000000       0.00000000 
